HIERARCHY
ROOT Hips
{
	OFFSET 0.000000 0.000000 0.000000
	CHANNELS 6 Xposition Yposition Zposition Xrotation Yrotation Zrotation
	JOINT LeftUpLeg_virtual
	{
		OFFSET 0.000000 0.000000 0.000000
		CHANNELS 3 Xrotation Yrotation Zrotation
		JOINT LeftUpLeg
		{
			OFFSET 15.427100 -6.655098 0.678600
			CHANNELS 3 Xrotation Yrotation Zrotation
			JOINT LeftLeg
			{
				OFFSET 4.081073 -39.591068 13.024000
				CHANNELS 3 Xrotation Yrotation Zrotation
				JOINT LeftFoot
				{
					OFFSET -4.081074 -37.707932 -15.979700
					CHANNELS 3 Xrotation Yrotation Zrotation
					JOINT LeftToeBase
					{
						OFFSET 5.346399 -15.068900 20.645000
						CHANNELS 3 Xrotation Yrotation Zrotation
						JOINT LeftToe_End
						{
							OFFSET 2.754700 0.931300 11.300900
							CHANNELS 3 Xrotation Yrotation Zrotation
							End Site
							{
								OFFSET 0 0 0
							}
						}
					}
				}
			}
		}
	}
	JOINT RightUpLeg_virtual
	{
		OFFSET 0.000000 0.000000 0.000000
		CHANNELS 3 Xrotation Yrotation Zrotation
		JOINT RightUpLeg
		{
			OFFSET -15.569500 -6.655098 0.678600
			CHANNELS 3 Xrotation Yrotation Zrotation
			JOINT RightLeg
			{
				OFFSET -4.081825 -39.591045 13.023800
				CHANNELS 3 Xrotation Yrotation Zrotation
				JOINT RightFoot
				{
					OFFSET 4.081824 -37.707954 -15.979600
					CHANNELS 3 Xrotation Yrotation Zrotation
					JOINT RightToeBase
					{
						OFFSET -5.346400 -15.068900 20.645000
						CHANNELS 3 Xrotation Yrotation Zrotation
						JOINT RightToe_End
						{
							OFFSET -2.754700 0.931300 11.300900
							CHANNELS 3 Xrotation Yrotation Zrotation
							End Site
							{
								OFFSET 0 0 0
							}
						}
					}
				}
			}
		}
	}
	JOINT Spine_virtual
	{
		OFFSET 0.000000 0.000000 0.000000
		CHANNELS 3 Xrotation Yrotation Zrotation
		JOINT Spine
		{
			OFFSET -0.279200 12.230698 -2.892100
			CHANNELS 3 Xrotation Yrotation Zrotation
			JOINT Spine1
			{
				OFFSET -0.232667 10.192268 -1.242267
				CHANNELS 3 Xrotation Yrotation Zrotation
				JOINT Spine1_split
				{
					OFFSET -0.232667 10.192268 -1.242267
					CHANNELS 3 Xrotation Yrotation Zrotation
					JOINT Spine2
					{
						OFFSET -0.232667 10.192268 -1.242267
						CHANNELS 3 Xrotation Yrotation Zrotation
						JOINT Neck_virtual
						{
							OFFSET 0.000000 0.000000 0.000000
							CHANNELS 3 Xrotation Yrotation Zrotation
							JOINT Neck
							{
								OFFSET -0.418800 17.814194 8.416900
								CHANNELS 3 Xrotation Yrotation Zrotation
								JOINT Head
								{
									OFFSET 0.000000 7.031097 3.806800
									CHANNELS 3 Xrotation Yrotation Zrotation
									JOINT HeadTop_End
									{
										OFFSET 0.000000 24.646606 12.978600
										CHANNELS 3 Xrotation Yrotation Zrotation
										End Site
										{
											OFFSET 0 0 0
										}
									}
								}
							}
						}
						JOINT LeftShoulder_virtual
						{
							OFFSET 0.000000 0.000000 0.000000
							CHANNELS 3 Xrotation Yrotation Zrotation
							JOINT LeftShoulder
							{
								OFFSET 8.476499 7.247704 -3.868750
								CHANNELS 3 Xrotation Yrotation Zrotation
								JOINT LeftShoulder_split
								{
									OFFSET 8.476499 7.247704 -3.868750
									CHANNELS 3 Xrotation Yrotation Zrotation
									JOINT LeftArm
									{
										OFFSET 9.308998 -2.777710 0.208600
										CHANNELS 3 Xrotation Yrotation Zrotation
										JOINT LeftForeArm
										{
											OFFSET 29.972298 0.000000 0.000000
											CHANNELS 3 Xrotation Yrotation Zrotation
											JOINT LeftHand
											{
												OFFSET 26.026505 0.000000 0.000000
												CHANNELS 3 Xrotation Yrotation Zrotation
												End Site
												{
													OFFSET 0 0 0
												}
											}
										}
									}
								}
							}
						}
						JOINT RightShoulder_virtual
						{
							OFFSET 0.000000 0.000000 0.000000
							CHANNELS 3 Xrotation Yrotation Zrotation
							JOINT RightShoulder
							{
								OFFSET -7.570500 7.247704 -3.868750
								CHANNELS 3 Xrotation Yrotation Zrotation
								JOINT RightShoulder_split
								{
									OFFSET -7.570500 7.247704 -3.868750
									CHANNELS 3 Xrotation Yrotation Zrotation
									JOINT RightArm
									{
										OFFSET -9.308998 -2.777710 0.208500
										CHANNELS 3 Xrotation Yrotation Zrotation
										JOINT RightForeArm
										{
											OFFSET -29.972300 0.000000 0.000000
											CHANNELS 3 Xrotation Yrotation Zrotation
											JOINT RightHand
											{
												OFFSET -26.026505 0.000000 0.000000
												CHANNELS 3 Xrotation Yrotation Zrotation
												End Site
												{
													OFFSET 0 0 0
												}
											}
										}
									}
								}
							}
						}
					}
				}
			}
		}
	}
}
MOTION
Frames: 5
Frame Time: 0.03333333
0.543014 65.556137 -7.297180 0.000000 0.000000 0.000000 -14.544756 5.414577 1.618189 -31.211372 -3.650458 14.523197 68.356089 -1.047370 -0.479224 -27.258868 -0.464589 -15.360551 -2.627156 -0.173291 0.082564 0.000000 0.000000 0.000000 -13.496314 3.207070 1.300377 -26.681699 -1.252566 -23.222773 68.991850 4.235402 1.134879 -29.934974 -4.724744 15.187344 1.078902 0.556771 -0.202887 0.000000 0.000000 0.000000 -12.935620 3.905658 1.194274 25.172737 -3.284094 -0.258514 16.652198 -0.228963 0.482749 -0.020080 1.019288 0.277699 0.000000 0.000000 0.000000 17.775851 -0.240203 0.649308 8.309912 -4.129987 1.213791 -12.451563 -2.130566 -4.037589 0.000000 0.000000 0.000000 18.364031 -0.381613 0.284795 0.702832 -19.168335 -4.353499 -1.463255 -1.786086 -4.603719 -29.440642 -0.002131 -59.865003 -135.972933 -77.051808 -133.864577 0.000000 0.000000 0.000000 18.068487 -0.017849 0.763582 7.388870 2.996376 21.426846 2.543124 3.688821 4.118394 -31.332188 9.898342 42.607225 -104.308340 63.029136 95.249761 0.000000 0.000000 0.000000 
0.408879 66.167587 -6.872952 0.000000 0.000000 0.000000 -15.300291 5.123729 1.308223 -29.337322 -3.795426 14.806469 67.402021 -0.893049 -0.256775 -27.381139 -0.414779 -15.161927 -2.760159 -0.160009 0.055786 0.000000 0.000000 0.000000 -14.374299 3.430014 1.059670 -24.914741 -1.369428 -22.476481 68.362742 4.062602 1.112489 -30.218550 -4.888307 15.077047 1.010647 0.541500 -0.145073 0.000000 0.000000 0.000000 -14.140871 3.537240 1.035535 24.778842 -3.018109 -0.389713 16.140055 -0.171144 0.580933 -0.238881 0.621208 0.295421 0.000000 0.000000 0.000000 17.023242 -0.186489 0.665091 8.014548 -3.975360 0.604645 -11.874959 -1.754076 -3.573746 0.000000 0.000000 0.000000 18.124891 -0.463047 0.387168 0.545912 -19.436528 -5.516012 -0.795053 -2.104588 -4.012307 -27.175890 -1.576331 -60.206608 -131.830069 -79.893529 -129.681195 0.000000 0.000000 0.000000 17.554858 0.049103 0.911507 7.359819 3.372200 21.708542 2.169441 2.928374 4.285134 -28.524796 8.194973 40.978871 -103.290963 62.916438 93.817088 0.000000 0.000000 0.000000 
0.212055 66.988052 -6.485935 0.000000 0.000000 0.000000 -16.164771 4.815223 0.992336 -27.222735 -4.030704 15.163379 66.029133 -0.747062 -0.014037 -27.355695 -0.428148 -14.975565 -2.829579 -0.159240 0.043935 0.000000 0.000000 0.000000 -15.396802 3.629672 0.835903 -22.829719 -1.752323 -21.656477 67.322374 3.875536 1.145046 -30.469016 -5.078346 14.899663 0.883337 0.535428 -0.086108 0.000000 0.000000 0.000000 -15.462192 3.409142 0.782046 24.132308 -2.698352 -0.421413 15.782981 -0.154231 0.726362 -0.208990 0.673234 0.368084 0.000000 0.000000 0.000000 16.451366 -0.192707 0.705380 7.613124 -3.705831 -0.114822 -11.513373 -1.289929 -3.022533 0.000000 0.000000 0.000000 17.957652 -0.559743 0.588332 0.415022 -20.139576 -6.635580 -0.769205 -2.313422 -3.675193 -24.447936 -3.986997 -59.631656 -123.080050 -82.212351 -120.379666 0.000000 0.000000 0.000000 17.094990 0.003456 1.110315 7.159380 3.588141 22.092793 1.354877 2.830276 4.217482 -24.803134 7.751752 39.178368 -104.653340 64.066068 94.813223 0.000000 0.000000 0.000000 
-0.019159 67.914848 -6.122860 0.000000 0.000000 0.000000 -17.023369 4.517742 0.728104 -25.063386 -4.300153 15.528222 64.388487 -0.616146 0.197909 -27.180104 -0.485868 -14.800947 -2.831984 -0.172736 0.065367 0.000000 0.000000 0.000000 -16.463608 3.709148 0.673170 -20.718149 -2.357321 -20.877158 65.995569 3.710043 1.237622 -30.591516 -5.265867 14.708435 0.689946 0.539080 -0.056249 0.000000 0.000000 0.000000 -16.698025 3.563466 0.516071 23.430322 -2.396362 -0.375094 15.509807 -0.185253 0.867141 0.226892 1.115651 0.602209 0.000000 0.000000 0.000000 16.035712 -0.245972 0.753450 6.906581 -3.327997 -0.825335 -11.516441 -0.857643 -2.376585 0.000000 0.000000 0.000000 17.699097 -0.659523 0.842960 0.367347 -20.952956 -7.443975 -1.120560 -2.443114 -3.741407 -22.184547 -6.237730 -58.335703 -115.430101 -83.590901 -111.712306 0.000000 0.000000 0.000000 16.641913 -0.140207 1.306824 6.875025 3.501478 22.511460 0.253718 3.011117 4.142115 -20.628177 8.028118 37.999501 -107.574359 66.258449 97.316248 0.000000 0.000000 0.000000 
-0.226967 68.851814 -5.791458 0.000000 0.000000 0.000000 -17.786868 4.257872 0.556703 -23.086051 -4.553599 15.816464 62.708103 -0.479565 0.347670 -26.882163 -0.520806 -14.633072 -2.767721 -0.186583 0.099264 0.000000 0.000000 0.000000 -17.428034 3.680316 0.567667 -18.771962 -3.085148 -20.197838 64.536449 3.593778 1.383765 -30.626421 -5.441120 14.508923 0.528308 0.550061 -0.067655 0.000000 0.000000 0.000000 -17.771910 3.885307 0.322613 22.794594 -2.166241 -0.278198 15.208393 -0.269376 0.956110 0.827683 1.527729 0.768260 0.000000 0.000000 0.000000 15.654199 -0.338547 0.805913 5.816254 -2.829843 -1.386990 -11.963867 -0.599104 -1.661472 0.000000 0.000000 0.000000 17.283239 -0.751872 1.063187 0.398836 -21.591642 -7.988089 -1.856052 -2.397958 -4.365094 -20.390447 -7.640745 -56.999892 -115.837317 -84.542784 -110.853410 0.000000 0.000000 0.000000 16.137843 -0.343068 1.429283 6.582057 3.118151 22.954896 -0.649075 3.403046 3.964074 -16.570707 8.347433 37.766390 -111.415180 69.143084 100.590163 0.000000 0.000000 0.000000 
